<?xml version="1.0" standalone="no"?>
<!DOCTYPE svg PUBLIC "-//W3C//DTD SVG 20010904//EN"
 "http://www.w3.org/TR/2001/REC-SVG-20010904/DTD/svg10.dtd">
<svg version="1.0" xmlns="http://www.w3.org/2000/svg"
 width="2048.000000pt" height="2048.000000pt" viewBox="0 0 2048.000000 2048.000000"
 preserveAspectRatio="xMidYMid meet">

<g transform="translate(0.000000,2048.000000) scale(0.100000,-0.100000)"
fill="#000000" stroke="none">
<path d="M9590 18984 c-910 -51 -1721 -259 -2505 -644 -262 -129 -419 -219
-683 -393 -902 -593 -1643 -1423 -2132 -2388 -322 -636 -521 -1268 -621 -1981
l-33 -228 -125 0 c-1409 0 -2670 -835 -3219 -2130 -102 -241 -178 -509 -233
-821 -30 -170 -32 -205 -37 -463 -4 -294 0 -354 44 -621 124 -748 478 -1422
1021 -1946 498 -480 1139 -806 1808 -919 290 -50 299 -50 1650 -50 699 0 1300
-3 1336 -6 l66 -7 12 -101 c75 -622 272 -1201 585 -1720 441 -729 1060 -1295
1820 -1662 1187 -573 2589 -563 3765 27 307 154 515 288 827 534 l24 19 968
-965 c746 -746 978 -971 1013 -988 101 -47 225 -46 328 2 63 29 137 106 169
175 24 50 27 69 27 157 0 175 78 84 -1019 1183 -731 732 -958 965 -951 976 6
7 40 51 78 97 148 184 328 466 450 706 226 444 374 931 435 1423 l17 145 930
6 c624 4 961 9 1025 17 703 89 1239 265 1815 597 526 303 1028 762 1394 1273
183 256 395 640 506 917 224 560 335 1124 335 1702 0 467 -75 930 -226 1398
-132 407 -364 867 -615 1217 -206 286 -527 631 -792 850 -576 478 -1257 804
-1977 948 -366 73 -585 92 -988 88 l-313 -3 -82 160 c-698 1355 -1843 2401
-3253 2970 -557 225 -1143 366 -1794 431 -138 14 -711 26 -850 18z m711 -754
c1166 -91 2240 -527 3149 -1280 156 -130 554 -527 682 -680 345 -416 638 -886
817 -1311 29 -68 63 -142 76 -165 32 -55 96 -111 164 -143 47 -22 70 -26 146
-26 50 0 146 8 215 19 154 23 609 27 790 7 1076 -117 2006 -646 2656 -1511
166 -221 345 -536 450 -791 351 -854 382 -1770 90 -2644 -187 -557 -486 -1037
-910 -1460 -624 -622 -1406 -994 -2286 -1087 -93 -10 -344 -13 -995 -13 l-870
0 -7 65 c-146 1292 -824 2412 -1894 3127 -824 551 -1853 806 -2814 698 -709
-81 -1359 -315 -1935 -699 -255 -169 -459 -340 -696 -583 -324 -332 -557 -660
-763 -1073 -231 -464 -365 -914 -426 -1430 -7 -52 -15 -99 -19 -103 -4 -4
-613 -6 -1352 -4 -1464 4 -1411 2 -1675 62 -669 152 -1244 531 -1638 1080
-363 505 -555 1169 -507 1755 34 414 126 749 297 1080 138 265 281 459 508
686 390 389 839 633 1375 744 260 55 605 66 887 30 166 -22 219 -20 289 10 97
43 167 116 206 219 17 45 23 89 30 221 9 186 36 425 74 640 279 1589 1224
2957 2625 3801 134 81 509 270 667 337 523 220 1103 364 1678 416 183 17 731
20 916 6z m349 -7945 c669 -93 1259 -346 1780 -763 131 -105 363 -334 479
-472 440 -524 692 -1085 803 -1785 25 -164 37 -653 19 -828 -71 -687 -301
-1269 -725 -1832 -113 -150 -468 -508 -616 -622 -561 -429 -1123 -659 -1810
-740 -195 -23 -583 -23 -770 1 -727 89 -1375 372 -1912 833 -114 97 -331 317
-419 423 -375 450 -642 1006 -753 1565 -56 283 -68 432 -63 755 6 362 32 556
117 875 282 1061 1083 1957 2115 2368 294 117 677 210 972 237 152 13 648 4
783 -15z"/>
<path d="M10083 9641 c-72 -25 -126 -62 -173 -122 -45 -57 -80 -157 -80 -229
0 -104 63 -232 146 -295 68 -52 125 -66 334 -81 377 -28 653 -109 951 -276
215 -122 342 -230 649 -555 87 -92 101 -102 159 -122 163 -53 328 -4 421 127
42 58 80 161 80 216 0 53 -29 148 -63 203 -54 91 -236 288 -400 436 -372 333
-831 560 -1338 662 -279 55 -583 72 -686 36z"/>
<path d="M12640 7468 c-154 -24 -285 -159 -304 -313 -4 -27 0 -142 8 -255 11
-159 19 -218 35 -262 41 -108 124 -187 233 -224 67 -22 194 -15 261 14 107 48
194 165 217 293 24 127 -11 441 -59 544 -68 147 -227 229 -391 203z"/>
</g>
</svg>
